<mxfile host="65bd71144e">
    <diagram name="Page-1" id="97916047-d0de-89f5-080d-49f4d83e522f">
        <mxGraphModel dx="897" dy="1775.5" grid="1" gridSize="10" guides="1" tooltips="1" connect="1" arrows="1" fold="1" page="1" pageScale="1.5" pageWidth="1169" pageHeight="827" background="none" math="0" shadow="0">
            <root>
                <mxCell id="0"/>
                <mxCell id="1" parent="0"/>
                <mxCell id="9Nch-Mfv7iRZc4vsGo1m-54" value="Wiring Diagram" style="rounded=1;fillColor=none;strokeColor=default;shadow=1;gradientColor=none;fontStyle=1;fontColor=#23445D;fontSize=14;strokeWidth=3;verticalAlign=top;" parent="1" vertex="1">
                    <mxGeometry x="90" y="170" width="1150" height="650" as="geometry"/>
                </mxCell>
                <mxCell id="80" value="" style="group" parent="1" vertex="1" connectable="0">
                    <mxGeometry x="700" y="440" width="510" height="350" as="geometry"/>
                </mxCell>
                <mxCell id="FAe4sGT7Xk_M7wpkX6ti-58" value="Control System" style="rounded=1;fillColor=#ffe6cc;strokeColor=#d79b00;shadow=1;fontStyle=1;fontSize=14;strokeWidth=3;verticalAlign=top;" parent="80" vertex="1">
                    <mxGeometry width="510" height="350" as="geometry"/>
                </mxCell>
                <mxCell id="205" value="" style="ellipse;whiteSpace=wrap;html=1;strokeColor=#23445D;fillColor=none;dashed=1;fontColor=#23445D;" vertex="1" parent="80">
                    <mxGeometry x="160" y="170" width="20" height="50" as="geometry"/>
                </mxCell>
                <mxCell id="FAe4sGT7Xk_M7wpkX6ti-77" value="F405 V3&#xa;FC" style="rounded=1;fillColor=#10739E;strokeColor=none;shadow=1;gradientColor=none;fontStyle=1;fontColor=#000000;fontSize=14;verticalAlign=bottom;labelPosition=center;verticalLabelPosition=top;align=center;" parent="80" vertex="1">
                    <mxGeometry x="220" y="71" width="70" height="269" as="geometry"/>
                </mxCell>
                <mxCell id="FAe4sGT7Xk_M7wpkX6ti-78" value="&lt;b&gt;M1&lt;/b&gt;" style="ellipse;whiteSpace=wrap;html=1;aspect=fixed;" parent="80" vertex="1">
                    <mxGeometry x="242.5" y="91" width="25" height="25" as="geometry"/>
                </mxCell>
                <mxCell id="FAe4sGT7Xk_M7wpkX6ti-79" value="&lt;b&gt;M2&lt;/b&gt;" style="ellipse;whiteSpace=wrap;html=1;aspect=fixed;" parent="80" vertex="1">
                    <mxGeometry x="242.5" y="131" width="25" height="25" as="geometry"/>
                </mxCell>
                <mxCell id="FAe4sGT7Xk_M7wpkX6ti-80" value="&lt;b&gt;M3&lt;/b&gt;" style="ellipse;whiteSpace=wrap;html=1;aspect=fixed;" parent="80" vertex="1">
                    <mxGeometry x="242.5" y="171.5" width="25" height="25" as="geometry"/>
                </mxCell>
                <mxCell id="FAe4sGT7Xk_M7wpkX6ti-81" value="&lt;b&gt;M4&lt;/b&gt;" style="ellipse;whiteSpace=wrap;html=1;aspect=fixed;" parent="80" vertex="1">
                    <mxGeometry x="242.5" y="213.5" width="25" height="25" as="geometry"/>
                </mxCell>
                <mxCell id="FAe4sGT7Xk_M7wpkX6ti-82" value="BAT" style="rounded=1;shadow=1;fontStyle=1;fontSize=13;horizontal=1;" parent="80" vertex="1">
                    <mxGeometry x="230" y="251" width="50" height="20" as="geometry"/>
                </mxCell>
                <mxCell id="FAe4sGT7Xk_M7wpkX6ti-83" value="BL32 50A&#xa;ESC" style="rounded=1;fillColor=#10739E;strokeColor=none;shadow=1;gradientColor=none;fontStyle=1;fontColor=#000000;fontSize=14;verticalAlign=bottom;labelPosition=center;verticalLabelPosition=top;align=center;" parent="80" vertex="1">
                    <mxGeometry x="50" y="71" width="70" height="269" as="geometry"/>
                </mxCell>
                <mxCell id="FAe4sGT7Xk_M7wpkX6ti-84" value="&lt;b&gt;S1&lt;/b&gt;" style="ellipse;whiteSpace=wrap;html=1;aspect=fixed;" parent="80" vertex="1">
                    <mxGeometry x="72.5" y="91" width="25" height="25" as="geometry"/>
                </mxCell>
                <mxCell id="FAe4sGT7Xk_M7wpkX6ti-85" value="&lt;b&gt;S2&lt;/b&gt;" style="ellipse;whiteSpace=wrap;html=1;aspect=fixed;" parent="80" vertex="1">
                    <mxGeometry x="72.5" y="131" width="25" height="25" as="geometry"/>
                </mxCell>
                <mxCell id="FAe4sGT7Xk_M7wpkX6ti-86" value="&lt;b&gt;S3&lt;/b&gt;" style="ellipse;whiteSpace=wrap;html=1;aspect=fixed;" parent="80" vertex="1">
                    <mxGeometry x="72.5" y="171.5" width="25" height="25" as="geometry"/>
                </mxCell>
                <mxCell id="FAe4sGT7Xk_M7wpkX6ti-87" value="&lt;b&gt;S4&lt;/b&gt;" style="ellipse;whiteSpace=wrap;html=1;aspect=fixed;" parent="80" vertex="1">
                    <mxGeometry x="72.5" y="213.5" width="25" height="25" as="geometry"/>
                </mxCell>
                <mxCell id="FAe4sGT7Xk_M7wpkX6ti-88" value="VBAT" style="rounded=1;shadow=1;fontStyle=1;fontSize=13;horizontal=1;" parent="80" vertex="1">
                    <mxGeometry x="60" y="251" width="50" height="19" as="geometry"/>
                </mxCell>
                <mxCell id="FAe4sGT7Xk_M7wpkX6ti-73" value="" style="edgeStyle=orthogonalEdgeStyle;strokeWidth=4;endArrow=block;endFill=1;fontStyle=1;strokeColor=#82b366;entryX=0;entryY=0.5;entryDx=0;entryDy=0;fillColor=#d5e8d4;exitX=1;exitY=0.5;exitDx=0;exitDy=0;curved=1;" parent="80" source="FAe4sGT7Xk_M7wpkX6ti-84" target="FAe4sGT7Xk_M7wpkX6ti-78" edge="1">
                    <mxGeometry x="-688" y="-624.5" width="100" height="100" as="geometry">
                        <mxPoint x="10" y="104" as="sourcePoint"/>
                        <mxPoint x="260" y="106" as="targetPoint"/>
                        <Array as="points">
                            <mxPoint x="140" y="104"/>
                            <mxPoint x="140" y="200"/>
                            <mxPoint x="200" y="200"/>
                            <mxPoint x="200" y="104"/>
                        </Array>
                    </mxGeometry>
                </mxCell>
                <mxCell id="FAe4sGT7Xk_M7wpkX6ti-74" value="" style="edgeStyle=orthogonalEdgeStyle;strokeWidth=4;endArrow=block;endFill=1;fontStyle=1;strokeColor=#82b366;entryX=0;entryY=0.5;entryDx=0;entryDy=0;fillColor=#d5e8d4;exitX=1;exitY=0.5;exitDx=0;exitDy=0;curved=1;" parent="80" source="FAe4sGT7Xk_M7wpkX6ti-86" target="FAe4sGT7Xk_M7wpkX6ti-80" edge="1">
                    <mxGeometry x="-688" y="-624.5" width="100" height="100" as="geometry">
                        <mxPoint x="10" y="184" as="sourcePoint"/>
                        <mxPoint x="260" y="201" as="targetPoint"/>
                        <Array as="points">
                            <mxPoint x="150" y="184"/>
                            <mxPoint x="150" y="200"/>
                            <mxPoint x="190" y="200"/>
                            <mxPoint x="190" y="184"/>
                        </Array>
                    </mxGeometry>
                </mxCell>
                <mxCell id="FAe4sGT7Xk_M7wpkX6ti-75" value="" style="edgeStyle=orthogonalEdgeStyle;strokeWidth=4;endArrow=block;endFill=1;fontStyle=1;strokeColor=#82b366;entryX=0;entryY=0.5;entryDx=0;entryDy=0;fillColor=#d5e8d4;exitX=1;exitY=0.5;exitDx=0;exitDy=0;curved=1;" parent="80" source="FAe4sGT7Xk_M7wpkX6ti-87" target="FAe4sGT7Xk_M7wpkX6ti-81" edge="1">
                    <mxGeometry x="-688" y="-624.5" width="100" height="100" as="geometry">
                        <mxPoint x="10" y="226" as="sourcePoint"/>
                        <mxPoint x="260" y="251" as="targetPoint"/>
                        <Array as="points">
                            <mxPoint x="140" y="226"/>
                            <mxPoint x="140" y="200"/>
                            <mxPoint x="200" y="200"/>
                            <mxPoint x="200" y="226"/>
                        </Array>
                    </mxGeometry>
                </mxCell>
                <mxCell id="FAe4sGT7Xk_M7wpkX6ti-76" value="" style="edgeStyle=orthogonalEdgeStyle;strokeWidth=4;endArrow=block;endFill=1;fontStyle=1;strokeColor=#82b366;entryX=0;entryY=0.5;entryDx=0;entryDy=0;fillColor=#d5e8d4;exitX=1;exitY=0.5;exitDx=0;exitDy=0;curved=1;" parent="80" source="FAe4sGT7Xk_M7wpkX6ti-85" target="FAe4sGT7Xk_M7wpkX6ti-79" edge="1">
                    <mxGeometry x="-688" y="-624.5" width="100" height="100" as="geometry">
                        <mxPoint x="10" y="144" as="sourcePoint"/>
                        <mxPoint x="260" y="151" as="targetPoint"/>
                        <Array as="points">
                            <mxPoint x="140" y="144"/>
                            <mxPoint x="140" y="200"/>
                            <mxPoint x="200" y="200"/>
                            <mxPoint x="200" y="144"/>
                        </Array>
                    </mxGeometry>
                </mxCell>
                <mxCell id="FAe4sGT7Xk_M7wpkX6ti-89" value="RPi 4B" style="rounded=1;fillColor=#10739E;strokeColor=none;shadow=1;gradientColor=none;fontStyle=1;fontColor=#000000;fontSize=14;verticalAlign=bottom;labelPosition=center;verticalLabelPosition=top;align=center;" parent="80" vertex="1">
                    <mxGeometry x="380" y="71" width="70" height="189" as="geometry"/>
                </mxCell>
                <mxCell id="FAe4sGT7Xk_M7wpkX6ti-90" value="&lt;b&gt;tx&lt;/b&gt;" style="ellipse;whiteSpace=wrap;html=1;aspect=fixed;" parent="80" vertex="1">
                    <mxGeometry x="402.5" y="91" width="30" height="30" as="geometry"/>
                </mxCell>
                <mxCell id="FAe4sGT7Xk_M7wpkX6ti-91" value="&lt;b&gt;rx&lt;/b&gt;" style="ellipse;whiteSpace=wrap;html=1;aspect=fixed;" parent="80" vertex="1">
                    <mxGeometry x="402.5" y="131" width="30" height="30" as="geometry"/>
                </mxCell>
                <mxCell id="FAe4sGT7Xk_M7wpkX6ti-92" value="&lt;b&gt;5v&lt;/b&gt;" style="ellipse;whiteSpace=wrap;html=1;aspect=fixed;" parent="80" vertex="1">
                    <mxGeometry x="402.5" y="171.5" width="30" height="30" as="geometry"/>
                </mxCell>
                <mxCell id="FAe4sGT7Xk_M7wpkX6ti-93" value="&lt;b&gt;GND&lt;/b&gt;" style="ellipse;whiteSpace=wrap;html=1;aspect=fixed;" parent="80" vertex="1">
                    <mxGeometry x="402.5" y="213.5" width="30" height="30" as="geometry"/>
                </mxCell>
                <mxCell id="FAe4sGT7Xk_M7wpkX6ti-95" value="" style="edgeStyle=orthogonalEdgeStyle;strokeWidth=4;endArrow=block;endFill=1;fontStyle=1;strokeColor=#82b366;entryX=0;entryY=0.5;entryDx=0;entryDy=0;fillColor=#d5e8d4;exitX=1;exitY=0.5;exitDx=0;exitDy=0;curved=1;" parent="80" source="FAe4sGT7Xk_M7wpkX6ti-88" target="FAe4sGT7Xk_M7wpkX6ti-82" edge="1">
                    <mxGeometry x="-688" y="-624.5" width="100" height="100" as="geometry">
                        <mxPoint x="108" y="236" as="sourcePoint"/>
                        <mxPoint x="253" y="236" as="targetPoint"/>
                        <Array as="points">
                            <mxPoint x="140" y="261"/>
                            <mxPoint x="140" y="200"/>
                            <mxPoint x="200" y="200"/>
                            <mxPoint x="200" y="261"/>
                        </Array>
                    </mxGeometry>
                </mxCell>
                <mxCell id="FAe4sGT7Xk_M7wpkX6ti-96" value="UART" style="rounded=1;shadow=1;fontStyle=1;fontSize=13;horizontal=1;" parent="80" vertex="1">
                    <mxGeometry x="230" y="309" width="50" height="20" as="geometry"/>
                </mxCell>
                <mxCell id="FAe4sGT7Xk_M7wpkX6ti-99" value="" style="edgeStyle=elbowEdgeStyle;strokeWidth=4;endArrow=block;endFill=1;fontStyle=1;strokeColor=#82b366;entryX=0;entryY=0.5;entryDx=0;entryDy=0;fillColor=#d5e8d4;exitX=1;exitY=0.5;exitDx=0;exitDy=0;" parent="80" source="FAe4sGT7Xk_M7wpkX6ti-96" target="FAe4sGT7Xk_M7wpkX6ti-90" edge="1">
                    <mxGeometry x="-688" y="-624.5" width="100" height="100" as="geometry">
                        <mxPoint x="120" y="271" as="sourcePoint"/>
                        <mxPoint x="240" y="271" as="targetPoint"/>
                        <Array as="points">
                            <mxPoint x="330" y="200"/>
                        </Array>
                    </mxGeometry>
                </mxCell>
                <mxCell id="FAe4sGT7Xk_M7wpkX6ti-100" value="" style="edgeStyle=elbowEdgeStyle;strokeWidth=4;endArrow=block;endFill=1;fontStyle=1;strokeColor=#82b366;entryX=0;entryY=0.5;entryDx=0;entryDy=0;fillColor=#d5e8d4;exitX=1;exitY=0.5;exitDx=0;exitDy=0;" parent="80" source="FAe4sGT7Xk_M7wpkX6ti-96" target="FAe4sGT7Xk_M7wpkX6ti-91" edge="1">
                    <mxGeometry x="-688" y="-624.5" width="100" height="100" as="geometry">
                        <mxPoint x="280" y="300" as="sourcePoint"/>
                        <mxPoint x="413" y="116" as="targetPoint"/>
                        <Array as="points">
                            <mxPoint x="330" y="220"/>
                        </Array>
                    </mxGeometry>
                </mxCell>
                <mxCell id="FAe4sGT7Xk_M7wpkX6ti-101" value="" style="edgeStyle=elbowEdgeStyle;strokeWidth=4;endArrow=block;endFill=1;fontStyle=1;strokeColor=#82b366;entryX=0;entryY=0.5;entryDx=0;entryDy=0;fillColor=#d5e8d4;exitX=1;exitY=0.5;exitDx=0;exitDy=0;" parent="80" source="FAe4sGT7Xk_M7wpkX6ti-96" target="FAe4sGT7Xk_M7wpkX6ti-92" edge="1">
                    <mxGeometry x="-688" y="-624.5" width="100" height="100" as="geometry">
                        <mxPoint x="295" y="305" as="sourcePoint"/>
                        <mxPoint x="413" y="156" as="targetPoint"/>
                        <Array as="points">
                            <mxPoint x="330" y="250"/>
                        </Array>
                    </mxGeometry>
                </mxCell>
                <mxCell id="FAe4sGT7Xk_M7wpkX6ti-102" value="" style="edgeStyle=elbowEdgeStyle;strokeWidth=4;endArrow=block;endFill=1;fontStyle=1;strokeColor=#82b366;entryX=0;entryY=0.5;entryDx=0;entryDy=0;fillColor=#d5e8d4;exitX=1;exitY=0.5;exitDx=0;exitDy=0;" parent="80" source="FAe4sGT7Xk_M7wpkX6ti-96" target="FAe4sGT7Xk_M7wpkX6ti-93" edge="1">
                    <mxGeometry x="-688" y="-624.5" width="100" height="100" as="geometry">
                        <mxPoint x="295" y="305" as="sourcePoint"/>
                        <mxPoint x="413" y="197" as="targetPoint"/>
                        <Array as="points">
                            <mxPoint x="330" y="260"/>
                        </Array>
                    </mxGeometry>
                </mxCell>
                <mxCell id="86" value="CUR" style="rounded=1;shadow=1;fontStyle=1;fontSize=13;horizontal=1;" parent="80" vertex="1">
                    <mxGeometry x="60" y="281" width="50" height="19" as="geometry"/>
                </mxCell>
                <mxCell id="88" value="" style="edgeStyle=orthogonalEdgeStyle;strokeWidth=4;endArrow=block;endFill=1;fontStyle=1;strokeColor=#82b366;fillColor=#d5e8d4;exitX=1;exitY=0.5;exitDx=0;exitDy=0;entryX=0;entryY=0.5;entryDx=0;entryDy=0;curved=1;" parent="80" source="86" target="202" edge="1">
                    <mxGeometry x="-1378" y="-1054.5" width="100" height="100" as="geometry">
                        <mxPoint x="120" y="270.5" as="sourcePoint"/>
                        <mxPoint x="220" y="291" as="targetPoint"/>
                        <Array as="points">
                            <mxPoint x="140" y="291"/>
                            <mxPoint x="140" y="200"/>
                            <mxPoint x="200" y="200"/>
                            <mxPoint x="200" y="290"/>
                        </Array>
                    </mxGeometry>
                </mxCell>
                <mxCell id="202" value="CUR" style="rounded=1;shadow=1;fontStyle=1;fontSize=13;horizontal=1;" parent="80" vertex="1">
                    <mxGeometry x="230" y="280" width="50" height="20" as="geometry"/>
                </mxCell>
                <mxCell id="204" style="edgeStyle=elbowEdgeStyle;rounded=0;orthogonalLoop=1;jettySize=auto;html=1;exitX=0.5;exitY=0;exitDx=0;exitDy=0;dashed=1;strokeColor=#23445D;fontColor=#23445D;endArrow=none;endFill=0;" edge="1" parent="80" source="205">
                    <mxGeometry relative="1" as="geometry">
                        <mxPoint x="170" y="150" as="targetPoint"/>
                        <Array as="points">
                            <mxPoint x="170" y="130"/>
                        </Array>
                    </mxGeometry>
                </mxCell>
                <mxCell id="206" value="&lt;div&gt;&lt;font style=&quot;font-size: 16px;&quot;&gt;&lt;span style=&quot;color: rgb(63, 63, 63);&quot;&gt;connector&lt;/span&gt;&lt;/font&gt;&lt;/div&gt;&lt;font style=&quot;font-size: 16px;&quot;&gt;8-pin&lt;/font&gt;" style="edgeLabel;html=1;align=center;verticalAlign=middle;resizable=0;points=[];labelBackgroundColor=none;fontColor=#23445D;" vertex="1" connectable="0" parent="80">
                    <mxGeometry x="149.99545454545455" y="40.00272727272727" as="geometry">
                        <mxPoint x="22" y="64" as="offset"/>
                    </mxGeometry>
                </mxCell>
                <mxCell id="0hPKIBFiTmCVOufTVkQz-49" value="&lt;font style=&quot;font-size: 16px;&quot;&gt;XT60&lt;br&gt;female&lt;br&gt;&lt;/font&gt;" style="edgeLabel;html=1;align=left;verticalAlign=middle;resizable=0;points=[];labelBackgroundColor=none;fontColor=#23445D;" parent="1" vertex="1" connectable="0">
                    <mxGeometry x="99.99545454545455" y="305.00272727272727" as="geometry">
                        <mxPoint x="22" y="64" as="offset"/>
                    </mxGeometry>
                </mxCell>
                <mxCell id="0hPKIBFiTmCVOufTVkQz-33" value="&lt;span style=&quot;font-size: 16px;&quot;&gt;usb-c&lt;/span&gt;" style="edgeLabel;html=1;align=left;verticalAlign=middle;resizable=0;points=[];labelBackgroundColor=none;fontColor=#23445D;" parent="1" vertex="1" connectable="0">
                    <mxGeometry x="793.9954545454545" y="216.00272727272727" as="geometry">
                        <mxPoint x="22" y="64" as="offset"/>
                    </mxGeometry>
                </mxCell>
                <mxCell id="Tr897aCAvD2A82pSiaK6-78" value="&lt;span style=&quot;font-size: 16px;&quot;&gt;usb-c&lt;/span&gt;" style="edgeLabel;html=1;align=left;verticalAlign=middle;resizable=0;points=[];labelBackgroundColor=none;fontColor=#23445D;" parent="1" vertex="1" connectable="0">
                    <mxGeometry x="793.9954545454545" y="185.00272727272727" as="geometry">
                        <mxPoint x="22" y="64" as="offset"/>
                    </mxGeometry>
                </mxCell>
                <mxCell id="Tr897aCAvD2A82pSiaK6-79" value="&lt;span style=&quot;font-size: 16px;&quot;&gt;usb-3&lt;/span&gt;" style="edgeLabel;html=1;align=left;verticalAlign=middle;resizable=0;points=[];labelBackgroundColor=none;fontColor=#23445D;" parent="1" vertex="1" connectable="0">
                    <mxGeometry x="793.9954545454545" y="295.00272727272727" as="geometry">
                        <mxPoint x="22" y="64" as="offset"/>
                    </mxGeometry>
                </mxCell>
                <mxCell id="0hPKIBFiTmCVOufTVkQz-32" value="&lt;font style=&quot;font-size: 16px;&quot;&gt;22.2v&lt;/font&gt;" style="edgeLabel;html=1;align=left;verticalAlign=middle;resizable=0;points=[];labelBackgroundColor=none;fontColor=#B85450;fontStyle=1" parent="1" vertex="1" connectable="0">
                    <mxGeometry x="129.99545454545455" y="260.00272727272727" as="geometry">
                        <mxPoint x="22" y="64" as="offset"/>
                    </mxGeometry>
                </mxCell>
                <mxCell id="Tr897aCAvD2A82pSiaK6-81" value="&lt;font style=&quot;font-size: 16px;&quot;&gt;data&lt;br&gt;pins&lt;br&gt;&lt;/font&gt;" style="edgeLabel;html=1;align=left;verticalAlign=middle;resizable=0;points=[];horizontal=0;labelBackgroundColor=none;fontColor=#23445D;" parent="1" vertex="1" connectable="0">
                    <mxGeometry x="771.9954545454545" y="408.00272727272727" as="geometry">
                        <mxPoint x="22" y="64" as="offset"/>
                    </mxGeometry>
                </mxCell>
                <mxCell id="Tr897aCAvD2A82pSiaK6-80" value="&lt;span style=&quot;font-size: 16px;&quot;&gt;usb-c&lt;/span&gt;" style="edgeLabel;html=1;align=left;verticalAlign=middle;resizable=0;points=[];labelBackgroundColor=none;fontColor=#23445D;" parent="1" vertex="1" connectable="0">
                    <mxGeometry x="793.9954545454545" y="325.00272727272727" as="geometry">
                        <mxPoint x="22" y="64" as="offset"/>
                    </mxGeometry>
                </mxCell>
                <mxCell id="2" value="Junction" style="rounded=1;fillColor=#10739E;strokeColor=none;shadow=1;gradientColor=none;fontStyle=1;fontColor=#FFFFFF;fontSize=14;" parent="1" vertex="1">
                    <mxGeometry x="220" y="444" width="70" height="41" as="geometry"/>
                </mxCell>
                <mxCell id="4" value="DC-DC Buck&#xa;Converter" style="rounded=1;fillColor=#10739E;strokeColor=none;shadow=1;gradientColor=none;fontStyle=1;fontColor=#FFFFFF;fontSize=14;" parent="1" vertex="1">
                    <mxGeometry x="420" y="245" width="100" height="60" as="geometry"/>
                </mxCell>
                <mxCell id="29" value="" style="edgeStyle=elbowEdgeStyle;strokeWidth=4;endArrow=block;endFill=1;fontStyle=1;strokeColor=#23445D;exitX=1;exitY=0.75;exitDx=0;exitDy=0;entryX=0;entryY=0.5;entryDx=0;entryDy=0;" parent="1" source="2" target="48" edge="1">
                    <mxGeometry x="22" y="125.5" width="100" height="100" as="geometry">
                        <mxPoint x="72" y="225.5" as="sourcePoint"/>
                        <mxPoint x="172" y="125.5" as="targetPoint"/>
                        <Array as="points">
                            <mxPoint x="340" y="500"/>
                        </Array>
                    </mxGeometry>
                </mxCell>
                <mxCell id="Tr897aCAvD2A82pSiaK6-56" value="" style="edgeStyle=elbowEdgeStyle;strokeWidth=4;endArrow=block;endFill=1;fontStyle=1;strokeColor=#23445D;entryX=0;entryY=0.5;entryDx=0;entryDy=0;exitX=1;exitY=0.25;exitDx=0;exitDy=0;" parent="1" source="2" target="4" edge="1">
                    <mxGeometry x="22" y="125.5" width="100" height="100" as="geometry">
                        <mxPoint x="290" y="450" as="sourcePoint"/>
                        <mxPoint x="410" y="365" as="targetPoint"/>
                        <Array as="points">
                            <mxPoint x="320" y="420"/>
                        </Array>
                    </mxGeometry>
                </mxCell>
                <mxCell id="Tr897aCAvD2A82pSiaK6-59" value="" style="edgeStyle=elbowEdgeStyle;strokeWidth=4;endArrow=block;endFill=1;fontStyle=1;strokeColor=#b85450;fillColor=#f8cecc;entryX=0;entryY=0.25;entryDx=0;entryDy=0;exitX=1;exitY=0.5;exitDx=0;exitDy=0;" parent="1" source="4" target="69" edge="1">
                    <mxGeometry x="22" y="95.5" width="100" height="100" as="geometry">
                        <mxPoint x="674.0000000000002" y="580" as="sourcePoint"/>
                        <mxPoint x="883.9999999999998" y="260" as="targetPoint"/>
                        <Array as="points">
                            <mxPoint x="750" y="260"/>
                        </Array>
                    </mxGeometry>
                </mxCell>
                <mxCell id="Tr897aCAvD2A82pSiaK6-62" value="" style="edgeStyle=elbowEdgeStyle;strokeWidth=4;endArrow=block;endFill=1;fontStyle=1;strokeColor=#b85450;exitX=1;exitY=0.5;exitDx=0;exitDy=0;fillColor=#f8cecc;entryX=0;entryY=0.75;entryDx=0;entryDy=0;" parent="1" source="4" target="65" edge="1">
                    <mxGeometry x="22" y="95.5" width="100" height="100" as="geometry">
                        <mxPoint x="674.0000000000002" y="580" as="sourcePoint"/>
                        <mxPoint x="884" y="420" as="targetPoint"/>
                        <Array as="points">
                            <mxPoint x="750" y="340"/>
                        </Array>
                    </mxGeometry>
                </mxCell>
                <mxCell id="Tr897aCAvD2A82pSiaK6-77" value="" style="edgeStyle=elbowEdgeStyle;strokeWidth=4;endArrow=none;endFill=0;fontStyle=1;strokeColor=#82b366;fillColor=#d5e8d4;entryX=0;entryY=0.25;entryDx=0;entryDy=0;exitX=0;exitY=0.75;exitDx=0;exitDy=0;elbow=vertical;startArrow=block;startFill=1;" parent="1" source="69" target="65" edge="1">
                    <mxGeometry x="2" y="-149.5" width="100" height="100" as="geometry">
                        <mxPoint x="883.9999999999998" y="290" as="sourcePoint"/>
                        <mxPoint x="883.9999999999998" y="380" as="targetPoint"/>
                        <Array as="points">
                            <mxPoint x="794" y="365"/>
                        </Array>
                    </mxGeometry>
                </mxCell>
                <mxCell id="0hPKIBFiTmCVOufTVkQz-47" value="6s 4Ah&#xa;70C battery" style="rounded=1;fillColor=#10739E;strokeColor=none;shadow=1;gradientColor=none;fontStyle=1;fontColor=#FFFFFF;fontSize=14;" parent="1" vertex="1">
                    <mxGeometry x="190" y="340" width="100" height="60" as="geometry"/>
                </mxCell>
                <mxCell id="0hPKIBFiTmCVOufTVkQz-48" value="" style="edgeStyle=elbowEdgeStyle;strokeWidth=4;endArrow=block;endFill=1;fontStyle=1;strokeColor=#23445D;exitX=0;exitY=0.5;exitDx=0;exitDy=0;entryX=0;entryY=0.5;entryDx=0;entryDy=0;" parent="1" source="0hPKIBFiTmCVOufTVkQz-47" target="2" edge="1">
                    <mxGeometry x="22" y="125.5" width="100" height="100" as="geometry">
                        <mxPoint x="300" y="470" as="sourcePoint"/>
                        <mxPoint x="440" y="393" as="targetPoint"/>
                        <Array as="points">
                            <mxPoint x="110" y="420"/>
                        </Array>
                    </mxGeometry>
                </mxCell>
                <mxCell id="31" value="&lt;font style=&quot;font-size: 16px;&quot;&gt;XT60&lt;br&gt;male&lt;br&gt;&lt;/font&gt;" style="edgeLabel;html=1;align=left;verticalAlign=middle;resizable=0;points=[];labelBackgroundColor=none;fontColor=#23445D;" parent="1" vertex="1" connectable="0">
                    <mxGeometry x="99.99545454545455" y="400.00272727272727" as="geometry">
                        <mxPoint x="22" y="64" as="offset"/>
                    </mxGeometry>
                </mxCell>
                <mxCell id="46" value="&lt;font style=&quot;font-size: 16px;&quot;&gt;&lt;br&gt;&lt;/font&gt;" style="edgeLabel;html=1;align=left;verticalAlign=middle;resizable=0;points=[];labelBackgroundColor=none;fontColor=#23445D;" parent="1" vertex="1" connectable="0">
                    <mxGeometry x="299.99545454545455" y="264.00272727272727" as="geometry">
                        <mxPoint x="22" y="64" as="offset"/>
                    </mxGeometry>
                </mxCell>
                <mxCell id="47" value="&lt;font style=&quot;font-size: 16px;&quot;&gt;12 AWG&lt;br&gt;&lt;/font&gt;" style="edgeLabel;html=1;align=left;verticalAlign=middle;resizable=0;points=[];labelBackgroundColor=none;fontColor=#23445D;" parent="1" vertex="1" connectable="0">
                    <mxGeometry x="274.99545454545455" y="426.00272727272727" as="geometry">
                        <mxPoint x="22" y="64" as="offset"/>
                    </mxGeometry>
                </mxCell>
                <mxCell id="48" value="BLS 55A&#xa;ESC" style="rounded=1;fillColor=#10739E;strokeColor=none;shadow=1;gradientColor=none;fontStyle=1;fontColor=#FFFFFF;fontSize=14;" parent="1" vertex="1">
                    <mxGeometry x="380" y="440" width="110" height="70" as="geometry"/>
                </mxCell>
                <mxCell id="49" value="&lt;font style=&quot;font-size: 16px;&quot;&gt;18 AWG&lt;/font&gt;" style="edgeLabel;html=1;align=left;verticalAlign=middle;resizable=0;points=[];labelBackgroundColor=none;fontColor=#23445D;" parent="1" vertex="1" connectable="0">
                    <mxGeometry x="500.99545454545455" y="197.00272727272727" as="geometry">
                        <mxPoint x="22" y="64" as="offset"/>
                    </mxGeometry>
                </mxCell>
                <mxCell id="50" value="&lt;b&gt;M1&lt;/b&gt;" style="ellipse;whiteSpace=wrap;html=1;aspect=fixed;" parent="1" vertex="1">
                    <mxGeometry x="628" y="350" width="40" height="40" as="geometry"/>
                </mxCell>
                <mxCell id="51" value="&lt;b&gt;M2&lt;/b&gt;" style="ellipse;whiteSpace=wrap;html=1;aspect=fixed;" parent="1" vertex="1">
                    <mxGeometry x="628" y="420" width="40" height="40" as="geometry"/>
                </mxCell>
                <mxCell id="52" value="&lt;b&gt;M4&lt;/b&gt;" style="ellipse;whiteSpace=wrap;html=1;aspect=fixed;" parent="1" vertex="1">
                    <mxGeometry x="628" y="560" width="40" height="40" as="geometry"/>
                </mxCell>
                <mxCell id="53" value="" style="edgeStyle=orthogonalEdgeStyle;strokeWidth=4;endArrow=block;endFill=1;fontStyle=1;strokeColor=#23445D;entryX=0;entryY=0.5;entryDx=0;entryDy=0;elbow=vertical;exitX=0.75;exitY=0;exitDx=0;exitDy=0;" parent="1" source="48" target="50" edge="1">
                    <mxGeometry x="-8" y="235.5" width="100" height="100" as="geometry">
                        <mxPoint x="499" y="440" as="sourcePoint"/>
                        <mxPoint x="619" y="486" as="targetPoint"/>
                        <Array as="points">
                            <mxPoint x="460" y="440"/>
                            <mxPoint x="460" y="420"/>
                            <mxPoint x="530" y="420"/>
                            <mxPoint x="530" y="370"/>
                        </Array>
                    </mxGeometry>
                </mxCell>
                <mxCell id="54" value="" style="edgeStyle=elbowEdgeStyle;strokeWidth=4;endArrow=block;endFill=1;fontStyle=1;strokeColor=#23445D;exitX=1;exitY=0.25;exitDx=0;exitDy=0;entryX=0;entryY=0.5;entryDx=0;entryDy=0;" parent="1" source="48" target="51" edge="1">
                    <mxGeometry x="-8" y="235.5" width="100" height="100" as="geometry">
                        <mxPoint x="539" y="457.5" as="sourcePoint"/>
                        <mxPoint x="659" y="520" as="targetPoint"/>
                        <Array as="points">
                            <mxPoint x="540" y="480"/>
                        </Array>
                    </mxGeometry>
                </mxCell>
                <mxCell id="55" value="" style="edgeStyle=elbowEdgeStyle;strokeWidth=4;endArrow=block;endFill=1;fontStyle=1;strokeColor=#23445D;exitX=1;exitY=0.75;exitDx=0;exitDy=0;entryX=0;entryY=0.5;entryDx=0;entryDy=0;" parent="1" source="48" target="56" edge="1">
                    <mxGeometry x="-8" y="235.5" width="100" height="100" as="geometry">
                        <mxPoint x="539" y="492.5" as="sourcePoint"/>
                        <mxPoint x="759" y="450" as="targetPoint"/>
                        <Array as="points">
                            <mxPoint x="540" y="530"/>
                        </Array>
                    </mxGeometry>
                </mxCell>
                <mxCell id="56" value="&lt;b&gt;M3&lt;/b&gt;" style="ellipse;whiteSpace=wrap;html=1;aspect=fixed;" parent="1" vertex="1">
                    <mxGeometry x="628" y="490" width="40" height="40" as="geometry"/>
                </mxCell>
                <mxCell id="57" value="" style="edgeStyle=orthogonalEdgeStyle;strokeWidth=4;endArrow=block;endFill=1;fontStyle=1;strokeColor=#23445D;entryX=0;entryY=0.5;entryDx=0;entryDy=0;elbow=vertical;exitX=0.75;exitY=1;exitDx=0;exitDy=0;" parent="1" source="48" target="52" edge="1">
                    <mxGeometry x="-8" y="235.5" width="100" height="100" as="geometry">
                        <mxPoint x="499" y="510" as="sourcePoint"/>
                        <mxPoint x="747" y="390" as="targetPoint"/>
                        <Array as="points">
                            <mxPoint x="463" y="530"/>
                            <mxPoint x="530" y="530"/>
                            <mxPoint x="530" y="580"/>
                        </Array>
                    </mxGeometry>
                </mxCell>
                <mxCell id="58" style="edgeStyle=elbowEdgeStyle;rounded=0;orthogonalLoop=1;jettySize=auto;html=1;exitX=0.5;exitY=0;exitDx=0;exitDy=0;dashed=1;strokeColor=#23445D;fontColor=#23445D;" parent="1" source="59" edge="1">
                    <mxGeometry relative="1" as="geometry">
                        <mxPoint x="620" y="320" as="targetPoint"/>
                        <Array as="points">
                            <mxPoint x="579" y="330"/>
                        </Array>
                    </mxGeometry>
                </mxCell>
                <mxCell id="59" value="" style="ellipse;whiteSpace=wrap;html=1;strokeColor=#23445D;fillColor=none;dashed=1;fontColor=#23445D;" parent="1" vertex="1">
                    <mxGeometry x="569" y="340" width="20" height="280" as="geometry"/>
                </mxCell>
                <mxCell id="60" value="&lt;font style=&quot;font-size: 16px;&quot;&gt;3-phase&lt;/font&gt;" style="edgeLabel;html=1;align=left;verticalAlign=middle;resizable=0;points=[];labelBackgroundColor=none;fontColor=#23445D;" parent="1" vertex="1" connectable="0">
                    <mxGeometry x="606.9954545454545" y="255.00272727272727" as="geometry">
                        <mxPoint x="22" y="64" as="offset"/>
                    </mxGeometry>
                </mxCell>
                <mxCell id="61" value="&lt;font style=&quot;font-size: 16px;&quot;&gt;18 AWG&lt;br&gt;&lt;/font&gt;" style="edgeLabel;html=1;align=left;verticalAlign=middle;resizable=0;points=[];labelBackgroundColor=none;fontColor=#23445D;" parent="1" vertex="1" connectable="0">
                    <mxGeometry x="312.99545454545455" y="197.00272727272727" as="geometry">
                        <mxPoint x="22" y="64" as="offset"/>
                    </mxGeometry>
                </mxCell>
                <mxCell id="62" value="&lt;font style=&quot;font-size: 16px;&quot;&gt;5v&lt;/font&gt;" style="edgeLabel;html=1;align=left;verticalAlign=middle;resizable=0;points=[];labelBackgroundColor=none;fontColor=#B85450;fontStyle=1" parent="1" vertex="1" connectable="0">
                    <mxGeometry x="486.99545454545455" y="164.00272727272727" as="geometry">
                        <mxPoint x="22" y="64" as="offset"/>
                    </mxGeometry>
                </mxCell>
                <mxCell id="63" value="&lt;font style=&quot;font-size: 16px;&quot;&gt;22.2v&lt;/font&gt;" style="edgeLabel;html=1;align=left;verticalAlign=middle;resizable=0;points=[];labelBackgroundColor=none;fontColor=#B85450;fontStyle=1" parent="1" vertex="1" connectable="0">
                    <mxGeometry x="374.99545454545455" y="164.00272727272727" as="geometry">
                        <mxPoint x="22" y="64" as="offset"/>
                    </mxGeometry>
                </mxCell>
                <mxCell id="64" value="&lt;font style=&quot;font-size: 16px;&quot;&gt;5v usb-c&lt;/font&gt;" style="edgeLabel;html=1;align=left;verticalAlign=middle;resizable=0;points=[];labelBackgroundColor=none;fontColor=#23445D;" parent="1" vertex="1" connectable="0">
                    <mxGeometry x="949.9954545454545" y="198.00272727272727" as="geometry">
                        <mxPoint x="22" y="64" as="offset"/>
                    </mxGeometry>
                </mxCell>
                <mxCell id="65" value="Pi-4B" style="rounded=1;fillColor=#10739E;strokeColor=none;shadow=1;gradientColor=none;fontStyle=1;fontColor=#FFFFFF;fontSize=14;" parent="1" vertex="1">
                    <mxGeometry x="884" y="355" width="80" height="60" as="geometry"/>
                </mxCell>
                <mxCell id="69" value="Y-adapter" style="rounded=1;fillColor=#10739E;strokeColor=none;shadow=1;gradientColor=none;fontStyle=1;fontColor=#FFFFFF;fontSize=14;" parent="1" vertex="1">
                    <mxGeometry x="884" y="245" width="80" height="60" as="geometry"/>
                </mxCell>
                <mxCell id="70" value="Oak-D Lite&#xa;Camera" style="rounded=1;fillColor=#10739E;strokeColor=none;shadow=1;gradientColor=none;fontStyle=1;fontColor=#FFFFFF;fontSize=14;" parent="1" vertex="1">
                    <mxGeometry x="1060" y="245" width="102" height="60" as="geometry"/>
                </mxCell>
                <mxCell id="71" value="" style="edgeStyle=elbowEdgeStyle;strokeWidth=4;endArrow=block;endFill=1;fontStyle=1;strokeColor=#23445D;exitX=1;exitY=0.5;exitDx=0;exitDy=0;entryX=0;entryY=0.5;entryDx=0;entryDy=0;" parent="1" source="69" target="70" edge="1">
                    <mxGeometry x="2" y="-269.5" width="100" height="100" as="geometry">
                        <mxPoint x="456" y="165" as="sourcePoint"/>
                        <mxPoint x="574" y="165" as="targetPoint"/>
                    </mxGeometry>
                </mxCell>
                <mxCell id="77" value="" style="edgeStyle=elbowEdgeStyle;rounded=0;orthogonalLoop=1;jettySize=auto;html=1;dashed=1;strokeColor=#23445D;fontColor=#23445D;endArrow=none;" parent="1" edge="1">
                    <mxGeometry relative="1" as="geometry">
                        <mxPoint x="656.9814239700004" y="650" as="targetPoint"/>
                        <Array as="points"/>
                        <mxPoint x="654" y="650" as="sourcePoint"/>
                    </mxGeometry>
                </mxCell>
                <mxCell id="90" value="Software Diagram" style="rounded=1;fillColor=none;strokeColor=default;shadow=1;gradientColor=none;fontStyle=1;fontColor=#23445D;fontSize=14;strokeWidth=3;verticalAlign=top;" parent="1" vertex="1">
                    <mxGeometry x="90" y="-150" width="1150" height="320" as="geometry"/>
                </mxCell>
                <mxCell id="167" value="" style="edgeStyle=elbowEdgeStyle;rounded=0;orthogonalLoop=1;jettySize=auto;html=1;dashed=1;strokeColor=#23445D;fontColor=#23445D;endArrow=none;" parent="1" edge="1">
                    <mxGeometry relative="1" as="geometry">
                        <mxPoint x="102.98142397000038" y="150" as="targetPoint"/>
                        <Array as="points"/>
                        <mxPoint x="100" y="150" as="sourcePoint"/>
                    </mxGeometry>
                </mxCell>
                <mxCell id="171" value="" style="edgeStyle=elbowEdgeStyle;rounded=0;orthogonalLoop=1;jettySize=auto;html=1;dashed=1;strokeColor=#23445D;fontColor=#23445D;endArrow=none;" parent="1" edge="1">
                    <mxGeometry relative="1" as="geometry">
                        <mxPoint x="292.5714239700004" y="150" as="targetPoint"/>
                        <Array as="points"/>
                        <mxPoint x="289.59000000000003" y="150" as="sourcePoint"/>
                    </mxGeometry>
                </mxCell>
                <mxCell id="178" value="" style="group" parent="1" vertex="1" connectable="0">
                    <mxGeometry x="640" y="-50" width="210" height="140" as="geometry"/>
                </mxCell>
                <mxCell id="176" value="RPi 4B&#xa;Computer" style="rounded=1;fillColor=#ffe6cc;strokeColor=#d79b00;shadow=1;fontStyle=1;fontSize=14;strokeWidth=3;verticalAlign=top;fontColor=#000000;" parent="178" vertex="1">
                    <mxGeometry width="210.00000000000006" height="140" as="geometry"/>
                </mxCell>
                <mxCell id="177" value="Ubuntu" style="rounded=1;fillColor=#10739E;strokeColor=none;shadow=1;gradientColor=none;fontStyle=1;fontColor=#000000;fontSize=14;verticalAlign=middle;labelPosition=center;verticalLabelPosition=middle;align=center;" parent="178" vertex="1">
                    <mxGeometry x="16.560000000000006" y="60" width="73.44000000000001" height="60" as="geometry"/>
                </mxCell>
                <mxCell id="186" value="MavSDK" style="rounded=1;fillColor=#10739E;strokeColor=none;shadow=1;gradientColor=none;fontStyle=1;fontColor=#000000;fontSize=14;verticalAlign=middle;labelPosition=center;verticalLabelPosition=middle;align=center;" parent="178" vertex="1">
                    <mxGeometry x="100.00000000000001" y="61" width="90.00000000000003" height="60" as="geometry"/>
                </mxCell>
                <mxCell id="179" value="" style="group" parent="1" vertex="1" connectable="0">
                    <mxGeometry x="350" y="-50" width="168.40999999999997" height="140" as="geometry"/>
                </mxCell>
                <mxCell id="172" value="F405 V4&#xa;Flight Controller" style="rounded=1;fillColor=#ffe6cc;strokeColor=#d79b00;shadow=1;fontStyle=1;fontSize=14;strokeWidth=3;verticalAlign=top;fontColor=#000000;" parent="179" vertex="1">
                    <mxGeometry width="168.41" height="140" as="geometry"/>
                </mxCell>
                <mxCell id="173" value="Ardupilot" style="rounded=1;fillColor=#10739E;strokeColor=none;shadow=1;gradientColor=none;fontStyle=1;fontColor=#000000;fontSize=14;verticalAlign=middle;labelPosition=center;verticalLabelPosition=middle;align=center;" parent="179" vertex="1">
                    <mxGeometry x="41.02999999999997" y="60" width="86.35" height="60" as="geometry"/>
                </mxCell>
                <mxCell id="180" value="" style="group" parent="1" vertex="1" connectable="0">
                    <mxGeometry x="150" y="-50" width="168.40999999999997" height="140" as="geometry"/>
                </mxCell>
                <mxCell id="92" value="BLS 55A&#xa;ESC" style="rounded=1;fillColor=#ffe6cc;strokeColor=#d79b00;shadow=1;fontStyle=1;fontSize=14;strokeWidth=3;verticalAlign=top;fontColor=#000000;" parent="180" vertex="1">
                    <mxGeometry width="168.41" height="140" as="geometry"/>
                </mxCell>
                <mxCell id="99" value="BlueJay" style="rounded=1;fillColor=#10739E;strokeColor=none;shadow=1;gradientColor=none;fontStyle=1;fontColor=#000000;fontSize=14;verticalAlign=middle;labelPosition=center;verticalLabelPosition=middle;align=center;" parent="180" vertex="1">
                    <mxGeometry x="41.02999999999997" y="60" width="86.35" height="60" as="geometry"/>
                </mxCell>
                <mxCell id="181" value="" style="edgeStyle=orthogonalEdgeStyle;strokeWidth=4;endArrow=block;endFill=1;fontStyle=1;strokeColor=#82b366;fillColor=#d5e8d4;curved=1;entryX=0.5;entryY=1;entryDx=0;entryDy=0;exitX=0.5;exitY=1;exitDx=0;exitDy=0;" parent="1" source="92" target="172" edge="1">
                    <mxGeometry x="-2588" y="-2104.5" width="100" height="100" as="geometry">
                        <mxPoint x="230" y="80" as="sourcePoint"/>
                        <mxPoint x="390" y="110" as="targetPoint"/>
                        <Array as="points">
                            <mxPoint x="234" y="130"/>
                            <mxPoint x="434" y="130"/>
                        </Array>
                    </mxGeometry>
                </mxCell>
                <mxCell id="184" value="" style="edgeStyle=orthogonalEdgeStyle;strokeWidth=4;endArrow=none;endFill=0;fontStyle=1;strokeColor=#82b366;fillColor=#d5e8d4;curved=1;entryX=0.5;entryY=0;entryDx=0;entryDy=0;exitX=0.5;exitY=0;exitDx=0;exitDy=0;startArrow=block;startFill=1;" parent="1" source="92" target="172" edge="1">
                    <mxGeometry x="-2578" y="-2094.5" width="100" height="100" as="geometry">
                        <mxPoint x="244.20499999999993" y="100" as="sourcePoint"/>
                        <mxPoint x="444.2049999999999" y="100" as="targetPoint"/>
                        <Array as="points">
                            <mxPoint x="234" y="-100"/>
                            <mxPoint x="430" y="-100"/>
                            <mxPoint x="430" y="-50"/>
                        </Array>
                    </mxGeometry>
                </mxCell>
                <mxCell id="185" value="" style="strokeWidth=4;endArrow=block;endFill=1;fontStyle=1;strokeColor=#82b366;fillColor=#d5e8d4;entryX=0;entryY=0.5;entryDx=0;entryDy=0;exitX=1;exitY=0.5;exitDx=0;exitDy=0;startArrow=block;startFill=1;fontColor=#23445D;labelBackgroundColor=#18141D;labelPosition=center;verticalLabelPosition=top;align=center;verticalAlign=top;" parent="1" source="172" target="176" edge="1">
                    <mxGeometry x="-2528" y="-2094.5" width="100" height="100" as="geometry">
                        <mxPoint x="294.2049999999999" y="100" as="sourcePoint"/>
                        <mxPoint x="494.2049999999999" y="100" as="targetPoint"/>
                    </mxGeometry>
                </mxCell>
                <mxCell id="194" value="MAVlink" style="edgeLabel;html=1;align=center;verticalAlign=middle;resizable=0;points=[];fontColor=#23445D;labelBackgroundColor=none;fontSize=18;" parent="185" vertex="1" connectable="0">
                    <mxGeometry relative="1" as="geometry">
                        <mxPoint y="-19" as="offset"/>
                    </mxGeometry>
                </mxCell>
                <mxCell id="187" value="" style="group" parent="1" vertex="1" connectable="0">
                    <mxGeometry x="970" y="-50" width="208.41" height="140" as="geometry"/>
                </mxCell>
                <mxCell id="188" value="Laptop&#xa;GCS" style="rounded=1;fillColor=#ffe6cc;strokeColor=#d79b00;shadow=1;fontStyle=1;fontSize=14;strokeWidth=3;verticalAlign=top;fontColor=#000000;" parent="187" vertex="1">
                    <mxGeometry width="208.41000000000005" height="140" as="geometry"/>
                </mxCell>
                <mxCell id="189" value="APM Planner" style="rounded=1;fillColor=#10739E;strokeColor=none;shadow=1;gradientColor=none;fontStyle=1;fontColor=#000000;fontSize=14;verticalAlign=middle;labelPosition=center;verticalLabelPosition=middle;align=center;whiteSpace=wrap;" parent="187" vertex="1">
                    <mxGeometry x="105.00407539942543" y="60" width="85.8492480217731" height="60" as="geometry"/>
                </mxCell>
                <mxCell id="198" value="MavSDK" style="rounded=1;fillColor=#10739E;strokeColor=none;shadow=1;gradientColor=none;fontStyle=1;fontColor=#000000;fontSize=14;verticalAlign=middle;labelPosition=center;verticalLabelPosition=middle;align=center;" parent="187" vertex="1">
                    <mxGeometry x="10.504006854493221" y="60" width="84.03205483594577" height="60" as="geometry"/>
                </mxCell>
                <mxCell id="190" value="" style="strokeWidth=4;endArrow=block;endFill=1;fontStyle=1;strokeColor=#82b366;fillColor=#d5e8d4;entryX=0;entryY=0.25;entryDx=0;entryDy=0;exitX=1;exitY=0.25;exitDx=0;exitDy=0;startArrow=block;startFill=1;fontColor=#23445D;labelBackgroundColor=none;" parent="1" source="176" target="188" edge="1">
                    <mxGeometry x="-2518" y="-2084.5" width="100" height="100" as="geometry">
                        <mxPoint x="578.4099999999999" y="30" as="sourcePoint"/>
                        <mxPoint x="669.9999999999998" y="30" as="targetPoint"/>
                    </mxGeometry>
                </mxCell>
                <mxCell id="196" value="MAVlink" style="edgeLabel;html=1;align=center;verticalAlign=middle;resizable=0;points=[];fontSize=18;fontColor=#23445D;labelBackgroundColor=none;" parent="190" vertex="1" connectable="0">
                    <mxGeometry relative="1" as="geometry">
                        <mxPoint y="-20" as="offset"/>
                    </mxGeometry>
                </mxCell>
                <mxCell id="199" value="" style="strokeWidth=4;endArrow=block;endFill=1;fontStyle=1;strokeColor=#82b366;fillColor=#d5e8d4;entryX=0;entryY=0.75;entryDx=0;entryDy=0;exitX=1;exitY=0.75;exitDx=0;exitDy=0;startArrow=block;startFill=1;fontColor=#23445D;labelBackgroundColor=none;" parent="1" source="176" target="188" edge="1">
                    <mxGeometry x="-2518" y="-2084.5" width="100" height="100" as="geometry">
                        <mxPoint x="860" y="30" as="sourcePoint"/>
                        <mxPoint x="980" y="30" as="targetPoint"/>
                    </mxGeometry>
                </mxCell>
                <mxCell id="200" value="SSH/VNC" style="edgeLabel;html=1;align=center;verticalAlign=middle;resizable=0;points=[];fontSize=18;fontColor=#23445D;labelBackgroundColor=none;" parent="199" vertex="1" connectable="0">
                    <mxGeometry relative="1" as="geometry">
                        <mxPoint y="-20" as="offset"/>
                    </mxGeometry>
                </mxCell>
            </root>
        </mxGraphModel>
    </diagram>
</mxfile>